<svg version="1.1" xmlns="http://www.w3.org/2000/svg" viewBox="0 0 1120 930" width="1120" height="930">
  <!-- svg-source:excalidraw -->
  
  <defs>
    <style>
      @font-face {
        font-family: "Virgil";
        src: url("https://excalidraw.com/Virgil.woff2");
      }
      @font-face {
        font-family: "Cascadia";
        src: url("https://excalidraw.com/Cascadia.woff2");
      }
    </style>
  </defs>
  <rect x="0" y="0" width="1120" height="930" fill="#ffffff"></rect><g stroke-linecap="round" transform="translate(80 70) rotate(0 75 30)"><path d="M52.05 1.57 C62.33 -0.39, 78.13 -1.04, 89.56 -0.28 C100.99 0.48, 111.81 3.05, 120.63 6.13 C129.46 9.2, 137.47 13.99, 142.51 18.14 C147.55 22.29, 151.45 26.38, 150.85 31.03 C150.24 35.68, 144.9 41.93, 138.87 46.06 C132.84 50.19, 124.71 53.42, 114.67 55.81 C104.63 58.2, 90.22 60.28, 78.6 60.41 C66.98 60.54, 55.37 58.42, 44.95 56.6 C34.52 54.77, 23.3 53.09, 16.05 49.48 C8.81 45.86, 3.74 39.73, 1.47 34.92 C-0.79 30.11, -0.99 25.11, 2.44 20.62 C5.87 16.12, 12.08 11.41, 22.06 7.95 C32.04 4.48, 54.04 0.96, 62.32 -0.15 C70.6 -1.26, 71.73 0.61, 71.74 1.26 M95.37 2.12 C106.38 2.64, 117.92 3.87, 126.15 6.9 C134.37 9.94, 140.73 15.89, 144.73 20.35 C148.73 24.81, 151.78 29.19, 150.15 33.65 C148.51 38.11, 142.1 43.41, 134.9 47.13 C127.7 50.85, 117.22 53.6, 106.94 55.96 C96.66 58.33, 84.53 61.35, 73.22 61.32 C61.92 61.3, 49.35 58.36, 39.1 55.82 C28.85 53.28, 18.4 50.14, 11.73 46.1 C5.06 42.06, 0.23 36.37, -0.91 31.61 C-2.05 26.84, 0.45 21.45, 4.89 17.52 C9.34 13.58, 16.6 10.76, 25.75 7.98 C34.9 5.19, 47.99 1.83, 59.79 0.82 C71.58 -0.2, 90.62 1.74, 96.53 1.9 C102.43 2.05, 95.78 1.45, 95.21 1.75" stroke="none" stroke-width="0" fill="#e7f5ff"></path><path d="M92.62 0 C103.56 0.56, 115.68 4.54, 124.3 7.73 C132.92 10.91, 140.06 14.91, 144.32 19.11 C148.59 23.32, 151.11 28.22, 149.89 32.95 C148.67 37.67, 143.55 43.52, 137.02 47.46 C130.49 51.41, 121 54.65, 110.71 56.64 C100.43 58.63, 86.92 59.57, 75.3 59.42 C63.67 59.27, 51.35 57.77, 40.94 55.75 C30.54 53.73, 19.45 51.12, 12.84 47.29 C6.24 43.46, 2.56 37.31, 1.32 32.76 C0.08 28.21, 1.27 24.33, 5.4 20 C9.54 15.66, 17.41 10, 26.12 6.74 C34.84 3.48, 44.98 1.16, 57.7 0.44 C70.42 -0.27, 93.6 1.73, 102.45 2.45 C111.29 3.16, 111.31 4.29, 110.77 4.75 M44.34 3.26 C53.88 1.08, 65.98 0.14, 77.73 0.43 C89.48 0.73, 104.65 2.57, 114.82 5.01 C124.99 7.45, 132.93 11.45, 138.74 15.07 C144.55 18.69, 148.97 21.97, 149.68 26.71 C150.4 31.45, 147.78 38.84, 143.06 43.49 C138.34 48.15, 130.43 51.93, 121.37 54.62 C112.31 57.31, 100.29 59, 88.69 59.64 C77.09 60.29, 62.86 59.8, 51.78 58.49 C40.71 57.18, 30.05 54.99, 22.22 51.76 C14.38 48.53, 8.03 43.6, 4.75 39.12 C1.47 34.64, 0.76 29.26, 2.54 24.87 C4.32 20.47, 8.58 16.54, 15.43 12.76 C22.28 8.98, 38.85 3.61, 43.64 2.19 C48.42 0.77, 43.8 3.74, 44.14 4.22" stroke="#1971c2" stroke-width="2" fill="none"></path></g><g transform="translate(85 90) rotate(0 70 10)"><text x="70" y="NaN" font-family="Virgil, Segoe UI Emoji" font-size="16px" fill="#1e1e1e" text-anchor="middle" style="white-space: pre;" direction="ltr">Gerencia</text></g><g stroke-linecap="round" transform="translate(300 70) rotate(0 75 30)"><path d="M111.09 2.65 C121.64 4.52, 131.57 9.2, 138.1 13.3 C144.63 17.41, 149.22 22.67, 150.26 27.31 C151.31 31.94, 148.56 36.87, 144.38 41.1 C140.2 45.32, 133.75 49.52, 125.16 52.63 C116.57 55.75, 104.22 58.63, 92.84 59.81 C81.47 60.98, 68.33 60.9, 56.92 59.7 C45.5 58.49, 33.09 55.77, 24.34 52.59 C15.6 49.41, 8.32 44.87, 4.47 40.61 C0.61 36.36, -0.19 31.76, 1.23 27.05 C2.64 22.34, 6.49 16.36, 12.93 12.37 C19.38 8.37, 29.4 5.19, 39.91 3.1 C50.42 1.02, 63.63 -0.53, 76.01 -0.15 C88.4 0.24, 107.12 4.52, 114.23 5.42 C121.34 6.32, 119.36 5.02, 118.66 5.26 M102.53 1.01 C113.14 1.94, 122.12 6.04, 129.68 9.78 C137.25 13.51, 145.07 19.09, 147.93 23.42 C150.8 27.75, 149.59 31.41, 146.89 35.77 C144.2 40.13, 139.02 45.7, 131.76 49.57 C124.5 53.43, 114.36 57.15, 103.34 58.97 C92.32 60.79, 77.64 60.95, 65.63 60.49 C53.63 60.03, 40.53 59.1, 31.3 56.2 C22.07 53.3, 15.49 47.36, 10.26 43.09 C5.03 38.81, 0.39 34.88, -0.08 30.55 C-0.56 26.22, 2.04 21.47, 7.39 17.12 C12.75 12.77, 22.38 7.16, 32.04 4.47 C41.7 1.78, 53.66 1.24, 65.38 0.97 C77.09 0.71, 96.5 2.58, 102.31 2.89 C108.11 3.19, 100.83 2.75, 100.19 2.81" stroke="none" stroke-width="0" fill="#e7f5ff"></path><path d="M90.86 0.3 C102.02 0.78, 113.77 4.66, 122.65 7.81 C131.54 10.96, 139.63 14.95, 144.17 19.2 C148.71 23.44, 150.99 28.75, 149.89 33.27 C148.79 37.8, 143.83 42.45, 137.57 46.32 C131.31 50.18, 122.44 54.34, 112.34 56.46 C102.24 58.59, 88.64 59, 76.98 59.08 C65.32 59.16, 52.78 58.93, 42.38 56.93 C31.98 54.93, 21.51 50.85, 14.58 47.08 C7.64 43.31, 2.42 38.94, 0.77 34.34 C-0.88 29.74, 0.87 23.83, 4.69 19.48 C8.51 15.12, 15.51 11.27, 23.71 8.19 C31.9 5.11, 41.9 2.24, 53.86 0.98 C65.82 -0.27, 88.08 0.54, 95.5 0.67 C102.91 0.8, 98.76 1.32, 98.36 1.74 M63.82 -0.02 C74.43 -1.33, 87.99 -1.13, 99.19 0.61 C110.4 2.34, 123.19 6.7, 131.07 10.4 C138.95 14.11, 143.71 18.56, 146.46 22.83 C149.21 27.1, 149.87 31.46, 147.59 36 C145.32 40.55, 139.89 46.54, 132.82 50.11 C125.74 53.68, 115.71 55.65, 105.14 57.42 C94.56 59.19, 81.38 61.29, 69.38 60.73 C57.38 60.18, 43.22 56.94, 33.16 54.1 C23.09 51.26, 14.51 47.58, 8.99 43.7 C3.46 39.82, 0.06 35.25, 0 30.83 C-0.06 26.4, 3.7 21.42, 8.63 17.16 C13.57 12.9, 20.5 8.02, 29.61 5.27 C38.72 2.51, 57.75 1.57, 63.3 0.64 C68.86 -0.3, 62.63 -0.99, 62.94 -0.34" stroke="#1971c2" stroke-width="2" fill="none"></path></g><g transform="translate(305 90) rotate(0 70 10)"><text x="70" y="NaN" font-family="Virgil, Segoe UI Emoji" font-size="16px" fill="#1e1e1e" text-anchor="middle" style="white-space: pre;" direction="ltr">Ventas</text></g><g stroke-linecap="round" transform="translate(110 190) rotate(0 155 45)"><path d="M1.6 -1.21 L311.41 0.3 L308.28 90.11 L0.33 91.79" stroke="none" stroke-width="0" fill="#a5d8ff"></path><path d="M-0.2 0.48 C62.82 -0.71, 123.28 0.7, 310.61 -0.34 M0.12 0.27 C121.54 -0.23, 243.7 0.4, 310.56 0.56 M311.83 0.26 C311.75 31.25, 309.97 65.59, 310.51 90.18 M310.68 0.81 C310.93 19.66, 310.14 39.05, 309.66 89.17 M311.06 88.62 C205.19 90.76, 99.16 92.99, 0.38 90.26 M309.65 90.51 C190.64 88.11, 71.81 87.8, 0.32 90.27 M1.51 91.47 C-1.13 53.93, -0.72 22.99, 1.33 1.15 M-0.04 90.98 C-0.57 65.46, -0.01 40.59, -0.03 0.89" stroke="#1971c2" stroke-width="2" fill="none"></path></g><g transform="translate(115 215) rotate(0 150 20)"><text x="150" y="NaN" font-family="Virgil, Segoe UI Emoji" font-size="16px" fill="#1e1e1e" text-anchor="middle" style="white-space: pre;" direction="ltr">Frontend Angular</text><text x="150" y="NaN" font-family="Virgil, Segoe UI Emoji" font-size="16px" fill="#1e1e1e" text-anchor="middle" style="white-space: pre;" direction="ltr">SPA · :4200</text></g><g stroke-linecap="round" transform="translate(10 340) rotate(0 415 75)"><path d="M0 0 C166.05 0, 332.1 0, 830 0 M830 0 C830 41.64, 830 83.27, 830 150 M830 150 C641.15 150, 452.3 150, 0 150 M0 150 C0 106.63, 0 63.26, 0 0" stroke="#868e96" stroke-width="1.5" fill="none" stroke-dasharray="8 9"></path></g><g transform="translate(20 348) rotate(0 5 8.75)"><text x="0" y="NaN" font-family="Virgil, Segoe UI Emoji" font-size="14px" fill="#868e96" text-anchor="start" style="white-space: pre;" direction="ltr">Servicios e Inteligencia</text></g><g stroke-linecap="round" transform="translate(40 400) rotate(0 100 40)"><path d="M-0.67 0.88 L201.63 1.9 L200.37 81.52 L0.72 79.38" stroke="none" stroke-width="0" fill="#d0bfff"></path><path d="M-1.28 0.35 C38.72 0.8, 78.66 -0.27, 198.66 -1.2 M201.95 1 C199.04 28.7, 199.03 58.37, 200.27 81.6 M198.31 78.43 C139.31 80.6, 79.58 79.88, -0.32 81.1 M-1.88 80.82 C0.75 49.74, -0.45 22.89, 1.83 -0.02" stroke="#7048e8" stroke-width="2.5" fill="none" stroke-dasharray="8 10"></path></g><g transform="translate(45 422.5) rotate(0 95 17.5)"><text x="95" y="NaN" font-family="Virgil, Segoe UI Emoji" font-size="14px" fill="#1e1e1e" text-anchor="middle" style="white-space: pre;" direction="ltr">Spring Boot API</text><text x="95" y="NaN" font-family="Virgil, Segoe UI Emoji" font-size="14px" fill="#1e1e1e" text-anchor="middle" style="white-space: pre;" direction="ltr">(pendiente · HU26)</text></g><g stroke-linecap="round" transform="translate(290 400) rotate(0 110 40)"><path d="M-1.61 -0.15 L221.96 -1.97 L221.33 78.92 L-0.56 80.18" stroke="none" stroke-width="0" fill="#e599f7"></path><path d="M-1.73 0.21 C45.13 -0.12, 88.25 -0.78, 219.42 0.21 M0.33 -0.38 C53.98 0.99, 109.13 1.02, 219.84 -0.17 M220.27 -0.74 C219.32 31.24, 221.84 60.35, 221.2 81.74 M220.25 -0.78 C219.57 18.84, 221.07 38.38, 220.54 79.4 M218.36 79.58 C149.01 81.43, 75.74 81.94, -1.24 79.59 M220.16 80.85 C155.42 80.37, 91.19 80.63, -0.24 80.76 M0.87 78.09 C-0.92 62.06, -1.3 44.1, 0.43 -1.33 M0.58 80.96 C-1.03 61.14, -0.4 40.84, -0.74 0.75" stroke="#9c36b5" stroke-width="2" fill="none"></path></g><g transform="translate(295 422.5) rotate(0 105 17.5)"><text x="105" y="NaN" font-family="Virgil, Segoe UI Emoji" font-size="14px" fill="#1e1e1e" text-anchor="middle" style="white-space: pre;" direction="ltr">AI Service · :8090</text><text x="105" y="NaN" font-family="Virgil, Segoe UI Emoji" font-size="14px" fill="#1e1e1e" text-anchor="middle" style="white-space: pre;" direction="ltr">Text-to-SQL</text></g><g stroke-linecap="round" transform="translate(560 400) rotate(0 120 40)"><path d="M-0.01 1.54 L238.14 1.28 L238.34 79.85 L-0.86 78.31" stroke="none" stroke-width="0" fill="#e599f7"></path><path d="M1.19 0.08 C48.03 2.77, 97.72 2.49, 240.13 1.51 M-0.18 0.51 C80.93 -1.3, 160.36 -1.5, 239.58 0.68 M238.42 0.26 C239.84 17.76, 241.13 36.99, 238.76 78.27 M239.44 0.02 C239.95 25.29, 239.53 50.27, 240.17 80.81 M238.6 78.89 C147.43 80.77, 53.52 82.78, 1.59 81.59 M240.35 80.34 C144.36 82.22, 48.96 81.56, -0.44 79.21 M1.98 80.96 C-0.6 52.17, 0.09 21.26, -1.2 1.85 M-0.55 80.96 C1.1 56.12, -0.25 32.42, -0.98 0.7" stroke="#9c36b5" stroke-width="2" fill="none"></path></g><g transform="translate(565 422.5) rotate(0 115 17.5)"><text x="115" y="NaN" font-family="Virgil, Segoe UI Emoji" font-size="14px" fill="#1e1e1e" text-anchor="middle" style="white-space: pre;" direction="ltr">Intelligence · :8091</text><text x="115" y="NaN" font-family="Virgil, Segoe UI Emoji" font-size="14px" fill="#1e1e1e" text-anchor="middle" style="white-space: pre;" direction="ltr">Predicción</text></g><g stroke-linecap="round" transform="translate(290 550) rotate(0 110 35)"><path d="M-0.91 -0.85 L221.38 -1.47 L221.81 71.88 L-1.6 69.18" stroke="none" stroke-width="0" fill="#ffc9c9"></path><path d="M0.75 -0.04 C42.93 1.74, 87.85 1.82, 220.85 -0.54 M218.38 -0.65 C221.05 14.54, 220.58 28.84, 218.34 69.66 M220.49 71.1 C152.22 70.89, 84.6 71.53, 0.28 68.95 M1.27 71.64 C-1.35 41.27, 2.01 17.9, -0.4 0.43" stroke="#e03131" stroke-width="2.5" fill="none" stroke-dasharray="8 10"></path></g><g transform="translate(295 576.25) rotate(0 105 8.75)"><text x="105" y="NaN" font-family="Virgil, Segoe UI Emoji" font-size="14px" fill="#1e1e1e" text-anchor="middle" style="white-space: pre;" direction="ltr">LLM externo</text></g><g stroke-linecap="round" transform="translate(560 550) rotate(0 120 35)"><path d="M-0.81 0.91 L238.5 -0.24 L240.37 71.72 L-1.46 68.57" stroke="none" stroke-width="0" fill="#e9ecef"></path><path d="M0.24 -0.16 C49.24 -2.72, 97.33 -2.29, 241.51 0.79 M0.5 0.61 C73.53 0.22, 146.92 -0.45, 240.71 0.7 M238.71 -1.73 C240.8 27.03, 239.62 54.71, 241.89 69.31 M239.82 -0.38 C240.26 17.61, 240.04 36.89, 239.43 69.62 M238.95 70.8 C162.21 72.65, 88.12 71.04, 0.5 68.9 M240.72 69.38 C190.02 70.14, 141.77 69.34, 0.82 69.48 M0.22 68.71 C1.64 53.03, 0.47 34.88, -0.47 0.2 M-0.81 70.94 C0.19 56.12, -1.11 41.68, 0.54 0.6" stroke="#868e96" stroke-width="2" fill="none"></path></g><g transform="translate(565 576.25) rotate(0 115 8.75)"><text x="115" y="NaN" font-family="Virgil, Segoe UI Emoji" font-size="14px" fill="#1e1e1e" text-anchor="middle" style="white-space: pre;" direction="ltr">MLflow · mlflow.db</text></g><g stroke-linecap="round" transform="translate(10 710) rotate(0 115 40)"><path d="M1.6 -0.68 L231.21 -1.05 L230.1 78.13 L0.86 81.71" stroke="none" stroke-width="0" fill="#ffc9c9"></path><path d="M-0.24 -0.29 C46.18 0.16, 91.46 0.97, 228.84 -1.26 M230 -0.42 C230.16 31.42, 228.04 60.46, 231.05 79.71 M230.73 79.38 C173.62 82.15, 114.62 80.26, -0.47 79.86 M-1.97 80.85 C2.19 53.9, 1.93 25.12, -1.89 -1.93" stroke="#e03131" stroke-width="2.5" fill="none" stroke-dasharray="8 10"></path></g><g transform="translate(15 733.75) rotate(0 110 16.25)"><text x="110" y="NaN" font-family="Virgil, Segoe UI Emoji" font-size="13px" fill="#1e1e1e" text-anchor="middle" style="white-space: pre;" direction="ltr">SAP B1 / SQL Server</text><text x="110" y="NaN" font-family="Virgil, Segoe UI Emoji" font-size="13px" fill="#1e1e1e" text-anchor="middle" style="white-space: pre;" direction="ltr">SP_EXTRAER_VENTAS</text></g><g stroke-linecap="round" transform="translate(10 840) rotate(0 115 40)"><path d="M-1.61 0.29 L228.87 -1.75 L228.4 79.6 L1.95 78.83" stroke="none" stroke-width="0" fill="#ffe8cc"></path><path d="M-0.72 -0.41 C45.1 -0.87, 92.96 0.3, 229.54 0.07 M-0.51 0.72 C63.36 0.04, 126.31 0.59, 230.17 0.74 M229 0.27 C230.31 23.85, 230.66 51.54, 231.01 80.36 M230.2 -0.77 C230.65 17.07, 230.61 31.8, 230.68 80.44 M229.29 79.36 C172.72 81.17, 117.54 82.63, -0.6 79.54 M229.42 80.09 C181.48 82.05, 132.83 81.09, 0.42 79.76 M-1.54 80.46 C-0.11 52.6, 0.86 21.91, 0.26 -1.45 M0.94 80.93 C0.81 54.04, 1.56 28.77, 0.07 0.51" stroke="#fd7e14" stroke-width="2" fill="none"></path></g><g transform="translate(15 863.75) rotate(0 110 16.25)"><text x="110" y="NaN" font-family="Virgil, Segoe UI Emoji" font-size="13px" fill="#1e1e1e" text-anchor="middle" style="white-space: pre;" direction="ltr">Spring Batch ETL</text><text x="110" y="NaN" font-family="Virgil, Segoe UI Emoji" font-size="13px" fill="#1e1e1e" text-anchor="middle" style="white-space: pre;" direction="ltr">idempotente (watermark)</text></g><g stroke-linecap="round" transform="translate(340 720) rotate(0 250 65)"><path d="M-0.01 1.97 L499.05 1.5 L499.42 130.53 L1.65 130.96" stroke="none" stroke-width="0" fill="#b2f2bb"></path><path d="M-0.57 -0.25 C100.75 1.9, 199.72 1.02, 500.12 0.66 M0.32 -0.04 C180.33 1.39, 360.79 1.54, 499.95 -0.05 M501.15 1.28 C500.44 49.75, 499.56 98.94, 498.57 130.88 M499.4 0.03 C501.11 35.41, 501.17 71.46, 500.31 129.85 M499.75 129.36 C346.72 130.76, 194.83 130.58, -0.54 130.74 M499.82 129.81 C341.99 128.25, 183.86 128.16, 0.1 129.95 M-0.43 129.33 C-0.12 89.39, -2.08 50.43, -1.37 1.73 M-0.19 130.92 C-0.5 82.54, 0.27 33.41, -0.17 0.46" stroke="#2f9e44" stroke-width="2" fill="none"></path></g><g transform="translate(345 758.75) rotate(0 245 26.25)"><text x="245" y="NaN" font-family="Virgil, Segoe UI Emoji" font-size="14px" fill="#1e1e1e" text-anchor="middle" style="white-space: pre;" direction="ltr">PostgreSQL — jhomeron_batch</text><text x="245" y="NaN" font-family="Virgil, Segoe UI Emoji" font-size="14px" fill="#1e1e1e" text-anchor="middle" style="white-space: pre;" direction="ltr">staging.ventas  ·  dwh.fact_ventas (~525K)</text><text x="245" y="NaN" font-family="Virgil, Segoe UI Emoji" font-size="14px" fill="#1e1e1e" text-anchor="middle" style="white-space: pre;" direction="ltr">ai.v_ventas  ·  consulta_log  ·  ai_readonly</text></g><g stroke-linecap="round" transform="translate(900 720) rotate(0 105 35)"><path d="M1.58 -0.34 L209.23 0.74 L210.43 71.47 L1.35 69.09" stroke="none" stroke-width="0" fill="#ffec99"></path><path d="M-1.76 -0.68 C42.34 1.01, 84.58 -0.56, 210.98 -0.69 M0.19 0.85 C51.3 1.46, 103.63 1.53, 209.61 0.78 M209.3 -1.72 C211.41 18.32, 209.29 35.67, 210.14 71.4 M210.59 0.84 C209.46 24.45, 209.61 48.53, 209.94 69.26 M209.64 71.36 C131.4 69.59, 56.79 70.8, 1.75 70.2 M209.8 70.85 C163.59 70.09, 116.84 68.94, 0.01 70.04 M0.69 68.21 C2.08 53.35, 1.2 35.31, 1 0.9 M0.68 70.91 C-0.11 54.24, 0.68 38.44, -0.4 0.41" stroke="#f08c00" stroke-width="2" fill="none"></path></g><g transform="translate(905 738.75) rotate(0 100 16.25)"><text x="100" y="NaN" font-family="Virgil, Segoe UI Emoji" font-size="13px" fill="#1e1e1e" text-anchor="middle" style="white-space: pre;" direction="ltr">Artefactos ML</text><text x="100" y="NaN" font-family="Virgil, Segoe UI Emoji" font-size="13px" fill="#1e1e1e" text-anchor="middle" style="white-space: pre;" direction="ltr">*.parquet</text></g><g stroke-linecap="round"><g transform="translate(155 130) rotate(0 55 30)"><path d="M0 0 C18.33 0, 91.67 -10, 110 0 C128.33 10, 110 50, 110 60 M0 0 C18.33 0, 91.67 -10, 110 0 C128.33 10, 110 50, 110 60" stroke="#1971c2" stroke-width="2" fill="none"></path></g><g transform="translate(155 130) rotate(0 55 30)"><path d="M106.14 30.25 C106.92 36.21, 107.69 42.16, 110 60 M106.14 30.25 C107.42 40.12, 108.7 49.98, 110 60" stroke="#1971c2" stroke-width="2" fill="none"></path></g><g transform="translate(155 130) rotate(0 55 30)"><path d="M126.17 34.73 C122.93 39.79, 119.69 44.85, 110 60 M126.17 34.73 C120.81 43.11, 115.44 51.49, 110 60" stroke="#1971c2" stroke-width="2" fill="none"></path></g></g><g stroke-linecap="round"><g transform="translate(375 130) rotate(0 -55 30)"><path d="M0 0 C-18.33 0, -91.67 -10, -110 0 C-128.33 10, -110 50, -110 60 M0 0 C-18.33 0, -91.67 -10, -110 0 C-128.33 10, -110 50, -110 60" stroke="#1971c2" stroke-width="2" fill="none"></path></g><g transform="translate(375 130) rotate(0 -55 30)"><path d="M-126.17 34.73 C-122.93 39.79, -119.69 44.85, -110 60 M-126.17 34.73 C-120.12 44.19, -114.06 53.65, -110 60" stroke="#1971c2" stroke-width="2" fill="none"></path></g><g transform="translate(375 130) rotate(0 -55 30)"><path d="M-106.14 30.25 C-106.92 36.21, -107.69 42.16, -110 60 M-106.14 30.25 C-107.59 41.39, -109.03 52.52, -110 60" stroke="#1971c2" stroke-width="2" fill="none"></path></g></g><g stroke-linecap="round"><g transform="translate(218 280) rotate(0 -39 60)"><path d="M0 0 C-13 0, -65 -20, -78 0 C-91 20, -78 100, -78 120 M0 0 C-13 0, -65 -20, -78 0 C-91 20, -78 100, -78 120" stroke="#7048e8" stroke-width="2" fill="none"></path></g><g transform="translate(218 280) rotate(0 -39 60)"><path d="M-90.46 92.71 C-87.96 98.17, -85.47 103.64, -78 120 M-90.46 92.71 C-87.75 98.63, -85.05 104.56, -78 120" stroke="#7048e8" stroke-width="2" fill="none"></path></g><g transform="translate(218 280) rotate(0 -39 60)"><path d="M-70 91.09 C-71.6 96.88, -73.21 102.67, -78 120 M-70 91.09 C-71.74 97.36, -73.47 103.64, -78 120" stroke="#7048e8" stroke-width="2" fill="none"></path></g></g><g stroke-linecap="round"><g transform="translate(311 280) rotate(0 44.5 60)"><path d="M0 0 C14.83 0, 74.17 -20, 89 0 C103.83 20, 89 100, 89 120 M0 0 C14.83 0, 74.17 -20, 89 0 C103.83 20, 89 100, 89 120" stroke="#9c36b5" stroke-width="2" fill="none"></path></g><g transform="translate(311 280) rotate(0 44.5 60)"><path d="M81.32 91 C82.86 96.81, 84.4 102.61, 89 120 M81.32 91 C83.32 98.53, 85.31 106.07, 89 120" stroke="#9c36b5" stroke-width="2" fill="none"></path></g><g transform="translate(311 280) rotate(0 44.5 60)"><path d="M101.76 92.85 C99.21 98.29, 96.65 103.72, 89 120 M101.76 92.85 C98.45 99.9, 95.13 106.95, 89 120" stroke="#9c36b5" stroke-width="2" fill="none"></path></g></g><g stroke-linecap="round"><g transform="translate(345 480) rotate(0 27.5 35)"><path d="M0 0 C9.17 0, 45.83 -11.67, 55 0 C64.17 11.67, 55 58.33, 55 70 M0 0 C9.17 0, 45.83 -11.67, 55 0 C64.17 11.67, 55 58.33, 55 70" stroke="#e03131" stroke-width="2" fill="none"></path></g><g transform="translate(345 480) rotate(0 27.5 35)"><path d="M47.48 40.96 C48.98 46.77, 50.49 52.59, 55 70 M47.48 40.96 C49.75 49.74, 52.03 58.53, 55 70" stroke="#e03131" stroke-width="2" fill="none"></path></g><g transform="translate(345 480) rotate(0 27.5 35)"><path d="M67.91 42.92 C65.32 48.34, 62.74 53.77, 55 70 M67.91 42.92 C64 51.11, 60.1 59.3, 55 70" stroke="#e03131" stroke-width="2" fill="none"></path></g></g><g stroke-linecap="round"><g transform="translate(510 440) rotate(0 25 0)"><path d="M0 0 C8.33 0, 41.67 0, 50 0 M0 0 C8.33 0, 41.67 0, 50 0" stroke="#9c36b5" stroke-width="2" fill="none"></path></g><g transform="translate(510 440) rotate(0 25 0)"><path d="M26.51 8.55 C31.21 6.84, 35.92 5.13, 50 0 M26.51 8.55 C34.62 5.6, 42.73 2.65, 50 0" stroke="#9c36b5" stroke-width="2" fill="none"></path></g><g transform="translate(510 440) rotate(0 25 0)"><path d="M26.51 -8.55 C31.21 -6.84, 35.92 -5.13, 50 0 M26.51 -8.55 C34.62 -5.6, 42.73 -2.65, 50 0" stroke="#9c36b5" stroke-width="2" fill="none"></path></g></g><g stroke-linecap="round"><g transform="translate(632 480) rotate(0 24 35)"><path d="M0 0 C8 0, 40 -11.67, 48 0 C56 11.67, 48 58.33, 48 70 M0 0 C8 0, 40 -11.67, 48 0 C56 11.67, 48 58.33, 48 70" stroke="#868e96" stroke-width="2" fill="none"></path></g><g transform="translate(632 480) rotate(0 24 35)"><path d="M40.13 41.05 C41.7 46.85, 43.28 52.65, 48 70 M40.13 41.05 C43.18 52.28, 46.23 63.51, 48 70" stroke="#868e96" stroke-width="2" fill="none"></path></g><g transform="translate(632 480) rotate(0 24 35)"><path d="M60.58 42.76 C58.06 48.22, 55.54 53.67, 48 70 M60.58 42.76 C55.7 53.33, 50.82 63.89, 48 70" stroke="#868e96" stroke-width="2" fill="none"></path></g></g><g stroke-linecap="round"><g transform="translate(455 480) rotate(0 42.5 120)"><path d="M0 0 C14.17 0, 70.83 -40, 85 0 C99.17 40, 85 200, 85 240 M0 0 C14.17 0, 70.83 -40, 85 0 C99.17 40, 85 200, 85 240" stroke="#2f9e44" stroke-width="2" fill="none"></path></g><g transform="translate(455 480) rotate(0 42.5 120)"><path d="M75.97 211.39 C77.78 217.12, 79.59 222.85, 85 240 M75.97 211.39 C78.05 217.99, 80.13 224.58, 85 240" stroke="#2f9e44" stroke-width="2" fill="none"></path></g><g transform="translate(455 480) rotate(0 42.5 120)"><path d="M96.47 212.28 C94.17 217.83, 91.87 223.38, 85 240 M96.47 212.28 C93.82 218.67, 91.18 225.06, 85 240" stroke="#2f9e44" stroke-width="2" fill="none"></path></g></g><g stroke-linecap="round"><g transform="translate(140 480) rotate(0 100 135)"><path d="M0 0 C0 5, -23.33 25, 0 30 C23.33 35, 116.67 -10, 140 30 C163.33 70, 130 230, 140 270 C150 310, 190 270, 200 270 M0 0 C0 5, -23.33 25, 0 30 C23.33 35, 116.67 -10, 140 30 C163.33 70, 130 230, 140 270 C150 310, 190 270, 200 270" stroke="#2f9e44" stroke-width="2" fill="none"></path></g><g transform="translate(140 480) rotate(0 100 135)"><path d="M179.17 291.59 C183.34 287.27, 187.52 282.94, 200 270 M179.17 291.59 C184.86 285.69, 190.56 279.79, 200 270" stroke="#2f9e44" stroke-width="2" fill="none"></path></g><g transform="translate(140 480) rotate(0 100 135)"><path d="M170.17 273.15 C176.14 272.52, 182.12 271.89, 200 270 M170.17 273.15 C178.32 272.29, 186.47 271.43, 200 270" stroke="#2f9e44" stroke-width="2" fill="none"></path></g></g><g stroke-linecap="round"><g transform="translate(800 460) rotate(0 35 162.5)"><path d="M0 0 C11.67 0, 58.33 -54.17, 70 0 C81.67 54.17, 75 270.83, 70 325 C65 379.17, 45 325, 40 325 M0 0 C11.67 0, 58.33 -54.17, 70 0 C81.67 54.17, 75 270.83, 70 325 C65 379.17, 45 325, 40 325" stroke="#2f9e44" stroke-width="2" fill="none"></path></g><g transform="translate(800 460) rotate(0 35 162.5)"><path d="M52.59 333.15 C50.07 331.52, 47.55 329.88, 40 325 M52.59 333.15 C48.61 330.57, 44.63 328, 40 325" stroke="#2f9e44" stroke-width="2" fill="none"></path></g><g transform="translate(800 460) rotate(0 35 162.5)"><path d="M44.41 339.34 C43.53 336.47, 42.64 333.59, 40 325 M44.41 339.34 C43.02 334.81, 41.62 330.28, 40 325" stroke="#2f9e44" stroke-width="2" fill="none"></path></g></g><g stroke-linecap="round"><g transform="translate(800 420) rotate(0 102.5 150)"><path d="M0 0 C34.17 0, 170.83 -50, 205 0 C239.17 50, 205 250, 205 300" stroke="#f08c00" stroke-width="2.5" fill="none" stroke-dasharray="8 10"></path></g><g transform="translate(800 420) rotate(0 102.5 150)"><path d="M197.12 271.05 C198.7 276.85, 200.28 282.65, 205 300" stroke="#f08c00" stroke-width="2.5" fill="none"></path></g><g transform="translate(800 420) rotate(0 102.5 150)"><path d="M217.57 272.76 C215.05 278.22, 212.53 283.67, 205 300" stroke="#f08c00" stroke-width="2.5" fill="none"></path></g></g><g stroke-linecap="round"><g transform="translate(125 790) rotate(0 0 25)"><path d="M0 0 C0 8.33, 0 41.67, 0 50 M0 0 C0 8.33, 0 41.67, 0 50" stroke="#e03131" stroke-width="2" fill="none"></path></g><g transform="translate(125 790) rotate(0 0 25)"><path d="M-8.55 26.51 C-6.84 31.21, -5.12 35.92, 0 50 M-8.55 26.51 C-6.83 31.24, -5.11 35.97, 0 50" stroke="#e03131" stroke-width="2" fill="none"></path></g><g transform="translate(125 790) rotate(0 0 25)"><path d="M8.55 26.51 C6.84 31.21, 5.12 35.92, 0 50 M8.55 26.51 C6.83 31.24, 5.11 35.97, 0 50" stroke="#e03131" stroke-width="2" fill="none"></path></g></g><g stroke-linecap="round"><g transform="translate(240 880) rotate(0 50 -30)"><path d="M0 0 C16.67 0, 83.33 10, 100 0 C116.67 -10, 100 -50, 100 -60 M0 0 C16.67 0, 83.33 10, 100 0 C116.67 -10, 100 -50, 100 -60" stroke="#fd7e14" stroke-width="2" fill="none"></path></g><g transform="translate(240 880) rotate(0 50 -30)"><path d="M115.68 -34.42 C112.54 -39.55, 109.39 -44.67, 100 -60 M115.68 -34.42 C111.85 -40.66, 108.02 -46.91, 100 -60" stroke="#fd7e14" stroke-width="2" fill="none"></path></g><g transform="translate(240 880) rotate(0 50 -30)"><path d="M95.57 -30.33 C96.45 -36.27, 97.34 -42.22, 100 -60 M95.57 -30.33 C96.65 -37.57, 97.73 -44.81, 100 -60" stroke="#fd7e14" stroke-width="2" fill="none"></path></g></g><g transform="translate(150 290) rotate(0 5 6.875)"><text x="0" y="NaN" font-family="Virgil, Segoe UI Emoji" font-size="11px" fill="#7048e8" text-anchor="start" style="white-space: pre;" direction="ltr">datos reales</text></g><g transform="translate(320 290) rotate(0 5 6.875)"><text x="0" y="NaN" font-family="Virgil, Segoe UI Emoji" font-size="11px" fill="#9c36b5" text-anchor="start" style="white-space: pre;" direction="ltr">chat IA</text></g><g transform="translate(300 505) rotate(0 5 6.875)"><text x="0" y="NaN" font-family="Virgil, Segoe UI Emoji" font-size="11px" fill="#e03131" text-anchor="start" style="white-space: pre;" direction="ltr">tools</text></g><g transform="translate(512 415) rotate(0 5 6.875)"><text x="0" y="NaN" font-family="Virgil, Segoe UI Emoji" font-size="11px" fill="#9c36b5" text-anchor="start" style="white-space: pre;" direction="ltr">predecir</text></g><g transform="translate(455 590) rotate(0 5 6.875)"><text x="0" y="NaN" font-family="Virgil, Segoe UI Emoji" font-size="11px" fill="#2f9e44" text-anchor="start" style="white-space: pre;" direction="ltr">v_ventas</text></g><g transform="translate(200 630) rotate(0 5 6.875)"><text x="0" y="NaN" font-family="Virgil, Segoe UI Emoji" font-size="11px" fill="#2f9e44" text-anchor="start" style="white-space: pre;" direction="ltr">modelo estrella</text></g><g transform="translate(245 855) rotate(0 5 6.875)"><text x="0" y="NaN" font-family="Virgil, Segoe UI Emoji" font-size="11px" fill="#fd7e14" text-anchor="start" style="white-space: pre;" direction="ltr">ETL</text></g><g transform="translate(10 10) rotate(0 5 12.5)"><text x="0" y="NaN" font-family="Virgil, Segoe UI Emoji" font-size="20px" fill="#1e1e1e" text-anchor="start" style="white-space: pre;" direction="ltr">Arquitectura JHOMERON — Business Management</text></g></svg>